<?xml version="1.0" standalone="no"?>
<!DOCTYPE svg PUBLIC "-//W3C//DTD SVG 20010904//EN"
 "http://www.w3.org/TR/2001/REC-SVG-20010904/DTD/svg10.dtd">
<svg version="1.0" xmlns="http://www.w3.org/2000/svg"
 width="260.000000pt" height="260.000000pt" viewBox="0 0 260.000000 260.000000"
 preserveAspectRatio="xMidYMid meet">
<metadata>
Created by potrace 1.14, written by Peter Selinger 2001-2017
</metadata>
<g transform="translate(0.000000,260.000000) scale(0.100000,-0.100000)"
fill="#000000" stroke="none">
<path d="M0 1300 l0 -1300 1300 0 1300 0 0 1300 0 1300 -1300 0 -1300 0 0
-1300z m1020 118 l195 -608 47 -17 c34 -12 47 -21 44 -32 -3 -9 -8 -37 -12
-64 l-6 -47 -229 0 -229 0 0 60 0 59 40 11 c22 5 58 15 81 21 31 8 40 14 37
27 -3 9 -22 77 -43 150 l-39 132 -209 -2 -210 -3 -43 -145 c-24 -80 -44 -147
-44 -150 0 -3 37 -12 83 -20 l82 -15 3 -63 3 -62 -218 2 -217 3 -12 60 c-7 33
-12 60 -11 61 1 0 26 9 56 20 l54 19 149 465 c82 256 169 529 194 608 l45 143
107 -3 107 -3 195 -607z m1215 594 l80 -17 17 -160 c24 -230 30 -205 -50 -205
l-69 0 -43 110 -43 109 -46 7 c-64 10 -175 -11 -248 -46 -76 -38 -165 -131
-205 -216 -140 -300 -6 -677 271 -758 119 -35 282 -14 381 49 l39 24 26 -57
c44 -94 42 -101 -45 -144 -263 -134 -622 -54 -797 177 -101 133 -137 249 -137
440 0 151 16 230 69 338 88 179 253 312 440 352 84 19 263 17 360 -3z"/>
<path d="M621 1558 c-40 -134 -74 -251 -77 -260 -5 -17 7 -18 146 -18 l151 0
-7 22 c-4 12 -35 128 -70 256 -34 129 -65 236 -67 238 -2 2 -36 -105 -76 -238z"/>
</g>
</svg>
